<?xml version="1.0" encoding="UTF-8"?>
<svg id="Layer_1" data-name="Layer 1" xmlns="http://www.w3.org/2000/svg" viewBox="0 0 320 318.41">
  <defs>
    <style>
      .cls-1 {
        fill: none;
      }

      .cls-2 {
        fill: #cdeaec;
      }

      .cls-3 {
        fill: #0456fb;
      }

      .cls-4 {
        fill: #e67a7a;
      }
    </style>
  </defs>
  <rect class="cls-3" width="320" height="318.41"/>
  <g>
    <polygon points="71.06 47.5 71.3 47.26 71.07 47.5 71.06 47.5"/>
    <g>
      <path d="M154.24,240.44c-2.25-3.86-10.16-6.9-11.03-11.03v.04l-7.01-45.4-.09-.55-.08-.54-.47-3.05-.09-.55-.09-.54-18.1-117.25h-28.77c1.38,6.2,1.47,9.56.87,15.76-.81,7.65-1.77,15.32-2.85,23.01l8.49.88c-.45.54-.9,1.09-1.33,1.65.17-.22.34-.43.52-.65.09-.1.17-.2.24-.31.19-.23.37-.46.57-.69l.61.03-.23.28c-.82.98-1.64,2.01-2.45,3.07-.03.02-.03.04-.05.06-.11.15-.24.31-.36.46l-.16.22-.6-.03h-.03c-1.97-.1-3.95-.18-5.91-.23-2.55,17.45-5.62,35-8.74,52.54-.03.17-.06.34-.09.51-.03.17-.06.34-.1.51-.17.99-.35,1.96-.52,2.95-.03.17-.06.34-.09.51-.03.17-.06.34-.1.51-4.13,23.18-8.27,46.33-11.28,69.18l-9.37,8.68h31.85l-9.37-9.74,4.73-28.31,26.7.96,4.32,27.21-11.03,9.83h51.47ZM85.95,190.02l-1.38-2.34,2.8-20.21.07-.51.07-.51.4-2.93.08-.52.07-.51,6.57-47.55,8.79,53.59.1.56.1.57.52,3.23.1.56.1.57,2.62,16.02h-21Z"/>
      <path d="M264.43,59.95l-14.39,13.88v66.98c-.22-.1-.44-.22-.65-.32l-1.81-.89-.44.34.09.38c.28,1.39.54,2.86.77,4.39,0,0,0,0,.02,0,.17.09.36.17.53.25.03.2.06.4.08.6.48.24.96.48,1.43.73v93.6l-21.59-40.03-.28-.51-.28-.52-1.53-2.83-.28-.51-.28-.51-46.73-86.64v116.73l14.39,13.87h-26.57l-.23-15.95-.14-31.54v-1.04s-.02-2.83-.02-2.83v-1.03s-.44-98.71-.44-98.71l-1.33-27.8h21.96l50.87,91.59v-77.66c-4.41-3.85-8.78-7.67-13.1-11.53-.69-.55-1.98.14-1.29-2.35l.18-.09-.04-.04h41.09Z"/>
    </g>
    <path class="cls-2" d="M31.3,64.39c-.5.19-1,.47-1.55.62s-1.08.39-1.55.62l1.23-1.24c.42-.43.89-.74,1.31-1.01.35-.35.89-.58,1.31-1.01s.89-.74,1.31-1.01c.89-.58,1.85-1.32,2.74-1.9s1.78-1.24,2.78-1.86c.93-.54,1.85-1.17,2.78-1.71s1.93-1.24,2.86-1.79l.81-.43c.19-.19.5-.35.77-.47-.35-.04-.54-.15-.81-.27s-.54-.15-.81-.27c-1.05-.35-2.09-.61-3.13-.96s-2.05-.65-3.1-1.15c-1.05-.35-2.05-.65-3.17-1.07s-2.05-.81-3.1-1.15c-.5-.19-1.01-.46-1.51-.65s-1.01-.46-1.55-.61c-.5-.19-1.01-.46-1.51-.65s-1.01-.46-1.43-.73c.54,0,1.08.15,1.62.15s1.08.15,1.7.23c.54.15,1.04.19,1.66.27s1.08.15,1.7.23c1.04.19,2.13.34,3.25.53s2.21.42,3.21.57,2.05.42,3.21.57c1.12.27,2.17.54,3.21.73.35.04.54.15.81.27s.54.15.89.19l-.82-1.51c-.54-.93-1.05-1.97-1.48-2.93-.54-.93-1.05-1.97-1.48-2.93-.54-.93-.97-2.05-1.4-3.01-.47-1-.89-1.97-1.32-2.94s-.47-1-.62-1.55c-.19-.5-.35-1.04-.58-1.51-.27-.58-.47-1-.7-1.62-.19-.5-.35-1.04-.58-1.51.35.35.66.81.93,1.23.43.42.74.89,1.09,1.39.35.35.74.73.93,1.23.43.42.58.89.97,1.35.58.89,1.24,1.78,1.82,2.66s1.32,1.85,1.86,2.78c.58.89,1.24,1.78,1.79,2.7s1.17,1.85,1.71,2.78c.19.19.43.42.47.77l.47.77c.04-.35.15-.54.27-.81s.15-.54.27-.81c.35-1.04.61-2.09.96-3.13s.65-2.05,1.07-3.02c.38-1.08.81-2.05,1.15-3.1s.81-2.05,1.31-3.1c.19-.5.35-1.04.61-1.55s.46-1.01.73-1.59c.19-.5.42-.97.61-1.47s.54-.93.81-1.51c0,.54-.15,1.08-.15,1.62s-.15,1.08-.23,1.7c-.08.46-.19,1.04-.19,1.59-.08.46-.15,1.08-.23,1.7-.19,1.04-.42,2.05-.57,3.21-.23,1.16-.42,2.21-.57,3.21-.27,1.12-.54,2.17-.65,3.29-.19,1.04-.5,2.13-.65,3.13-.12.27-.23.62-.27.81-.04.35-.15.54-.19.89.27-.12.58-.27.81-.43l.81-.43c1-.47,1.97-1.05,2.97-1.52.93-.54,1.97-1.05,2.97-1.52s2.05-.97,3.01-1.4c.97-.43,1.97-.89,3.01-1.25.5-.19,1-.47,1.55-.62.62-.23,1.08-.39,1.55-.62s.97-.43,1.55-.62c.62-.23,1.04-.35,1.58-.51-.35.35-.89.58-1.31,1.01s-.89.74-1.31,1.01-.89.58-1.35.97c-.42.43-.97.66-1.35.97-.97.66-1.78,1.4-2.59,1.9-.89.58-1.78,1.24-2.7,1.79s-1.85,1.17-2.7,1.79c-.89.58-1.85,1.17-2.7,1.79-.19.19-.58.27-.77.47s-.5.35-.77.47c.35.04.54.15.81.27s.54.15.81.27c1.05.35,2.09.61,3.13.96s2.05.65,3.13.96c1.05.35,2.05.65,3.17,1.07s2.05.81,3.17,1.23c.5.19,1.05.35,1.51.58s1.01.46,1.59.73c.5.19,1.05.35,1.55.61.5.19,1.01.46,1.59.73-.54,0-1.16-.07-1.7-.07s-1.08-.15-1.66-.27c-.54,0-1.08-.15-1.62-.15-.62-.08-1.08-.15-1.66-.27-1.08-.15-2.21-.42-3.25-.53s-2.21-.42-3.33-.61c-1.04-.19-2.13-.5-3.13-.65-1.12-.27-2.13-.5-3.13-.65-.35-.04-.54-.15-.89-.19s-.54-.15-.89-.19l.43.81c.19.19.27.58.43.81.54.93,1.05,1.97,1.48,2.93.51.89.97,1.89,1.48,2.93.54.93.97,1.89,1.48,2.93.43.97.89,1.97,1.4,3.01.19.5.43.97.66,1.51s.39,1.08.62,1.55.43.97.58,1.51c.16.54.39,1.08.58,1.51-.35-.35-.74-.73-1.09-1.23-.43-.42-.74-.89-1.01-1.31-.35-.35-.74-.73-1.01-1.31s-.74-.89-1.01-1.31c-.58-.89-1.24-1.78-1.82-2.66s-1.24-1.78-1.82-2.66c-.54-.93-1.17-1.85-1.79-2.7-.58-.89-1.09-1.78-1.79-2.7l-.89-1.58c-.12.27-.23.62-.35.89s-.15.54-.27.81c-.35,1.04-.65,2.05-1,3.1l-1,3.1c-.35,1.04-.73,2.13-1.07,3.17-.38,1.08-.81,2.05-1.15,3.1-.27.58-.46,1.01-.73,1.59s-.46,1.01-.61,1.47c-.27.58-.46,1.01-.73,1.59s-.46,1.01-.73,1.43c0-.54.07-1.16.07-1.7,0-.54.15-1.08.19-1.59.08-.62.15-1.24.23-1.7s.19-1.04.34-1.59c.15-1.08.26-2.21.53-3.25s.42-2.21.57-3.21.42-2.05.65-3.13.54-2.17.73-3.21c.04-.35.15-.54.19-.89s.15-.54.19-.89c-.19.19-.42.27-.73.35s-.58.27-.81.43c-1,.47-1.97,1.05-2.97,1.52-1,.47-1.97,1.05-2.93,1.48-1,.47-1.97,1.05-2.93,1.48-1,.47-1.97.89-3.09,1.32-.5.19-1,.47-1.51.66s-1,.47-1.47.62h0l-.97-.11-.12-.19Z"/>
    <path class="cls-2" d="M248.16,283.6c-.5.19-1,.47-1.55.62s-1.08.39-1.55.62l1.23-1.24c.42-.43.89-.74,1.31-1.01.35-.35.89-.58,1.31-1.01s.89-.74,1.31-1.01c.89-.58,1.85-1.32,2.74-1.9s1.78-1.24,2.78-1.86c.93-.54,1.85-1.17,2.78-1.71s1.93-1.24,2.86-1.79l.81-.43c.19-.19.5-.35.77-.47-.35-.04-.54-.15-.81-.27s-.54-.15-.81-.27c-1.05-.35-2.09-.61-3.13-.96s-2.05-.65-3.1-1.15c-1.05-.35-2.05-.65-3.17-1.07s-2.05-.81-3.1-1.15c-.5-.19-1.01-.46-1.51-.65s-1.01-.46-1.55-.61c-.5-.19-1.01-.46-1.51-.65s-1.01-.46-1.43-.73c.54,0,1.08.15,1.62.15s1.08.15,1.7.23c.54.15,1.04.19,1.66.27s1.08.15,1.7.23c1.04.19,2.13.34,3.25.53s2.21.42,3.21.57,2.05.42,3.21.57c1.12.27,2.17.54,3.21.73.35.04.54.15.81.27s.54.15.89.19l-.82-1.51c-.54-.93-1.05-1.97-1.48-2.93-.54-.93-1.05-1.97-1.48-2.93-.54-.93-.97-2.05-1.4-3.01-.47-1-.89-1.97-1.32-2.94s-.47-1-.62-1.55c-.19-.5-.35-1.04-.58-1.51-.27-.58-.47-1-.7-1.62-.19-.5-.35-1.04-.58-1.51.35.35.66.81.93,1.23.43.42.74.89,1.09,1.39.35.35.74.73.93,1.23.43.42.58.89.97,1.35.58.89,1.24,1.78,1.82,2.66s1.32,1.85,1.86,2.78c.58.89,1.24,1.78,1.79,2.7s1.17,1.85,1.71,2.78c.19.19.43.42.47.77l.47.77c.04-.35.15-.54.27-.81s.15-.54.27-.81c.35-1.04.61-2.09.96-3.13s.65-2.05,1.07-3.02c.38-1.08.81-2.05,1.15-3.1s.81-2.05,1.31-3.1c.19-.5.35-1.04.61-1.55s.46-1.01.73-1.59c.19-.5.42-.97.61-1.47s.54-.93.81-1.51c0,.54-.15,1.08-.15,1.62s-.15,1.08-.23,1.7c-.08.46-.19,1.04-.19,1.59-.08.46-.15,1.08-.23,1.7-.19,1.04-.42,2.05-.57,3.21-.23,1.16-.42,2.21-.57,3.21-.27,1.12-.54,2.17-.65,3.29-.19,1.04-.5,2.13-.65,3.13-.12.27-.23.62-.27.81-.04.35-.15.54-.19.89.27-.12.58-.27.81-.43l.81-.43c1-.47,1.97-1.05,2.97-1.52.93-.54,1.97-1.05,2.97-1.52s2.05-.97,3.01-1.4c.97-.43,1.97-.89,3.01-1.25.5-.19,1-.47,1.55-.62.62-.23,1.08-.39,1.55-.62s.97-.43,1.55-.62c.62-.23,1.04-.35,1.58-.51-.35.35-.89.58-1.31,1.01s-.89.74-1.31,1.01-.89.58-1.35.97c-.42.43-.97.66-1.35.97-.97.66-1.78,1.4-2.59,1.9-.89.58-1.78,1.24-2.7,1.79s-1.85,1.17-2.7,1.79c-.89.58-1.85,1.17-2.7,1.79-.19.19-.58.27-.77.47s-.5.35-.77.47c.35.04.54.15.81.27s.54.15.81.27c1.05.35,2.09.61,3.13.96s2.05.65,3.13.96c1.05.35,2.05.65,3.17,1.07s2.05.81,3.17,1.23c.5.19,1.05.35,1.51.58s1.01.46,1.59.73c.5.19,1.05.35,1.55.61.5.19,1.01.46,1.59.73-.54,0-1.16-.07-1.7-.07s-1.08-.15-1.66-.27c-.54,0-1.08-.15-1.62-.15-.62-.08-1.08-.15-1.66-.27-1.08-.15-2.21-.42-3.25-.53s-2.21-.42-3.33-.61c-1.04-.19-2.13-.5-3.13-.65-1.12-.27-2.13-.5-3.13-.65-.35-.04-.54-.15-.89-.19s-.54-.15-.89-.19l.43.81c.19.19.27.58.43.81.54.93,1.05,1.97,1.48,2.93.51.89.97,1.89,1.48,2.93.54.93.97,1.89,1.48,2.93.43.97.89,1.97,1.4,3.01.19.5.43.97.66,1.51s.39,1.08.62,1.55.43.97.58,1.51c.16.54.39,1.08.58,1.51-.35-.35-.74-.73-1.09-1.23-.43-.42-.74-.89-1.01-1.31-.35-.35-.74-.73-1.01-1.31s-.74-.89-1.01-1.31c-.58-.89-1.24-1.78-1.82-2.66s-1.24-1.78-1.82-2.66c-.54-.93-1.17-1.85-1.79-2.7-.58-.89-1.09-1.78-1.79-2.7l-.89-1.58c-.12.27-.23.62-.35.89s-.15.54-.27.81c-.35,1.04-.65,2.05-1,3.1l-1,3.1c-.35,1.04-.73,2.13-1.07,3.17-.38,1.08-.81,2.05-1.15,3.1-.27.58-.46,1.01-.73,1.59s-.46,1.01-.61,1.47c-.27.58-.46,1.01-.73,1.59s-.46,1.01-.73,1.43c0-.54.07-1.16.07-1.7,0-.54.15-1.08.19-1.59.08-.62.15-1.24.23-1.7s.19-1.04.34-1.59c.15-1.08.26-2.21.53-3.25s.42-2.21.57-3.21.42-2.05.65-3.13.54-2.17.73-3.21c.04-.35.15-.54.19-.89s.15-.54.19-.89c-.19.19-.42.27-.73.35s-.58.27-.81.43c-1,.47-1.97,1.05-2.97,1.52-1,.47-1.97,1.05-2.93,1.48-1,.47-1.97,1.05-2.93,1.48-1,.47-1.97.89-3.09,1.32-.5.19-1,.47-1.51.66s-1,.47-1.47.62h0l-.97-.11-.12-.19Z"/>
    <g>
      <path class="cls-4" d="M286.83,166.61c-2.56-3.02-5.92-6.09-10.05-9.24-4.13-3.16-9.02-6.36-14.66-9.59-3.73-2.14-7.79-4.31-12.08-6.42v4.38c3.34,1.69,6.51,3.41,9.5,5.12,10.55,6.06,18.37,11.96,23.24,17.53,4.78,5.45,6.43,10.25,4.93,14.3-1.49,4.03-6.13,7.25-13.77,9.54-6.29,1.89-14.32,3.07-23.91,3.51-2.31.1-4.72.17-7.22.19-.92,0-1.85,0-2.78,0-3.68-.02-7.52-.11-11.45-.31-.83-.04-1.67-.09-2.5-.14-5.9-.34-12.01-.87-18.31-1.6-9.24-1.05-18.86-2.5-28.7-4.32-4.15-.78-8.34-1.61-12.56-2.51-6.14-1.32-12.34-2.76-18.57-4.35-4.21-1.07-8.37-2.19-12.47-3.35-11.19-3.15-21.9-6.6-31.96-10.29-3.23-1.18-6.39-2.38-9.48-3.61-2.05-.82-4.07-1.64-6.05-2.48-3.78-1.59-7.44-3.2-10.96-4.86-.92-.43-1.82-.85-2.72-1.29-.69-.33-1.38-.66-2.06-1.01-4.18-2.06-8.14-4.17-11.8-6.27-10.55-6.06-18.37-11.96-23.24-17.53-4.77-5.44-6.43-10.26-4.93-14.29,1.48-4.03,6.12-7.25,13.76-9.54,7.81-2.35,18.28-3.6,31.13-3.71,2.83-.02,5.77,0,8.76.09.03-.17.04-.32.07-.49.13-.92.26-1.82.39-2.74.02-.17.04-.33.07-.5-3.21-.1-6.33-.13-9.34-.11-13.71.12-24.89,1.51-33.22,4.12-8.68,2.71-14.05,6.69-15.95,11.79-1.9,5.11-.15,10.89,5.2,17.17,5.14,6.03,13.45,12.36,24.72,18.84,3.89,2.23,8.13,4.47,12.59,6.66,1.28.64,2.59,1.26,3.91,1.89.64.3,1.28.6,1.94.9,3.57,1.65,7.28,3.27,11.12,4.86,2.01.84,4.05,1.66,6.12,2.47,3.47,1.36,7.03,2.69,10.67,4,10.08,3.61,20.76,6.99,31.88,10.08,3.46.96,6.97,1.89,10.51,2.79,6.69,1.7,13.34,3.24,19.91,4.63,4.22.9,8.4,1.73,12.55,2.48,8.74,1.6,17.28,2.9,25.57,3.91,7.96.97,15.66,1.64,23.03,2.02.17,0,.33.02.49.03,3.34.17,6.63.27,9.83.31.98,0,1.94.03,2.89.03.65,0,1.32-.02,1.97-.02,2.48-.02,4.86-.08,7.18-.19,10.49-.46,19.22-1.79,26.04-3.91,8.68-2.71,14.05-6.69,15.95-11.8,1.9-5.11.15-10.88-5.2-17.17Z"/>
      <path class="cls-4" d="M283.17,168.06c-4.92-5.61-12.78-11.55-23.38-17.64-3.16-1.81-6.43-3.57-9.75-5.25v.57c3.34,1.69,6.51,3.41,9.5,5.12,10.55,6.06,18.37,11.96,23.24,17.53,4.78,5.45,6.43,10.25,4.93,14.3-1.49,4.03-6.13,7.25-13.77,9.54-6.29,1.89-14.32,3.07-23.91,3.51v.51c9.63-.45,17.7-1.64,24.06-3.54,7.79-2.33,12.53-5.65,14.09-9.84,1.57-4.23-.12-9.21-5.02-14.8ZM283.17,168.06c-4.92-5.61-12.78-11.55-23.38-17.64-3.16-1.81-6.43-3.57-9.75-5.25v.57c3.34,1.69,6.51,3.41,9.5,5.12,10.55,6.06,18.37,11.96,23.24,17.53,4.78,5.45,6.43,10.25,4.93,14.3-1.49,4.03-6.13,7.25-13.77,9.54-6.29,1.89-14.32,3.07-23.91,3.51v.51c9.63-.45,17.7-1.64,24.06-3.54,7.79-2.33,12.53-5.65,14.09-9.84,1.57-4.23-.12-9.21-5.02-14.8ZM287.21,166.29c-2.56-3.03-5.97-6.16-10.12-9.32-4.11-3.14-9.07-6.38-14.73-9.63-3.76-2.17-7.89-4.36-12.32-6.54v1.12c4.25,2.1,8.21,4.21,11.81,6.29,5.63,3.23,10.55,6.43,14.62,9.56,4.09,3.11,7.45,6.2,9.97,9.17,3.87,4.54,5.82,8.81,5.82,12.72,0,1.35-.24,2.67-.71,3.95-1.83,4.95-7.09,8.81-15.61,11.48-6.78,2.13-15.47,3.43-25.89,3.9-2.31.1-4.71.17-7.18.19h-1.96c-.85,0-1.74,0-2.62-.02h-.27c-3.3-.03-6.7-.15-10.11-.32-.06,0-.12,0-.18,0-7.25-.37-14.86-1.03-22.64-1.97-.12,0-.24-.03-.37-.03-8.33-1-16.9-2.31-25.62-3.92-4.15-.76-8.33-1.59-12.55-2.49-6.52-1.37-13.11-2.91-19.77-4.6-3.62-.92-7.18-1.87-10.72-2.84-11.12-3.09-21.79-6.46-31.9-10.1-3.53-1.27-7-2.57-10.39-3.91-.04-.02-.09-.04-.14-.05-2.06-.81-4.09-1.63-6.09-2.47-3.82-1.58-7.52-3.2-11.1-4.85-.6-.29-1.2-.57-1.8-.85-.08-.04-.16-.08-.24-.11-1.25-.6-2.48-1.19-3.68-1.78-4.45-2.18-8.67-4.41-12.55-6.64-11.22-6.44-19.49-12.75-24.59-18.73-5.22-6.13-6.94-11.74-5.11-16.66,1.84-4.96,7.09-8.82,15.62-11.49,8.3-2.59,19.42-3.97,33.08-4.09h1.86c2.42,0,4.88.03,7.4.1.02-.17.04-.33.07-.5s.04-.33.07-.51c-3.22-.1-6.37-.13-9.41-.1-13.76.11-24.98,1.52-33.37,4.14-8.83,2.76-14.32,6.82-16.26,12.08-1.96,5.29-.19,11.24,5.28,17.67,5.17,6.06,13.53,12.45,24.85,18.95,3.91,2.23,8.15,4.49,12.62,6.68,1.28.64,2.6,1.26,3.93,1.9.08.04.16.07.24.11.6.28,1.2.56,1.81.84,3.58,1.65,7.31,3.28,11.14,4.86,1.98.82,3.98,1.63,6.01,2.42.04.02.09.04.14.05,3.53,1.39,7.13,2.74,10.81,4.05,10.1,3.62,20.77,6.98,31.87,10.06,3.39.93,6.83,1.85,10.3,2.73,6.75,1.72,13.44,3.27,20.04,4.66,4.22.9,8.4,1.72,12.55,2.48,8.55,1.57,16.94,2.86,25.12,3.84.13.02.25.03.38.05,7.93.95,15.68,1.64,23.08,2.02.26,0,.53.03.79.03,3.12.15,6.22.24,9.25.3h.45c.92,0,1.83.02,2.74.02h1.98c2.47-.03,4.86-.1,7.17-.2,10.53-.47,19.32-1.79,26.19-3.94,4.42-1.38,8-3.09,10.71-5.12,2.71-2.01,4.58-4.34,5.54-6.97,1.97-5.3.19-11.24-5.28-17.67ZM288.19,182.86c1.57-4.23-.12-9.21-5.02-14.8-4.92-5.61-12.78-11.55-23.38-17.64-3.16-1.81-6.43-3.57-9.75-5.25v.57c3.34,1.69,6.51,3.41,9.5,5.12,10.55,6.06,18.37,11.96,23.24,17.53,4.78,5.45,6.43,10.25,4.93,14.3-1.49,4.03-6.13,7.25-13.77,9.54-6.29,1.89-14.32,3.07-23.91,3.51v.51c9.63-.45,17.7-1.64,24.06-3.54,7.79-2.33,12.53-5.65,14.09-9.84ZM283.17,168.06c-4.92-5.61-12.78-11.55-23.38-17.64-3.16-1.81-6.43-3.57-9.75-5.25v.57c3.34,1.69,6.51,3.41,9.5,5.12,10.55,6.06,18.37,11.96,23.24,17.53,4.78,5.45,6.43,10.25,4.93,14.3-1.49,4.03-6.13,7.25-13.77,9.54-6.29,1.89-14.32,3.07-23.91,3.51v.51c9.63-.45,17.7-1.64,24.06-3.54,7.79-2.33,12.53-5.65,14.09-9.84,1.57-4.23-.12-9.21-5.02-14.8ZM283.17,168.06c-4.92-5.61-12.78-11.55-23.38-17.64-3.16-1.81-6.43-3.57-9.75-5.25v.57c3.34,1.69,6.51,3.41,9.5,5.12,10.55,6.06,18.37,11.96,23.24,17.53,4.78,5.45,6.43,10.25,4.93,14.3-1.49,4.03-6.13,7.25-13.77,9.54-6.29,1.89-14.32,3.07-23.91,3.51v.51c9.63-.45,17.7-1.64,24.06-3.54,7.79-2.33,12.53-5.65,14.09-9.84,1.57-4.23-.12-9.21-5.02-14.8ZM283.17,168.06c-4.92-5.61-12.78-11.55-23.38-17.64-3.16-1.81-6.43-3.57-9.75-5.25v.57c3.34,1.69,6.51,3.41,9.5,5.12,10.55,6.06,18.37,11.96,23.24,17.53,4.78,5.45,6.43,10.25,4.93,14.3-1.49,4.03-6.13,7.25-13.77,9.54-6.29,1.89-14.32,3.07-23.91,3.51v.51c9.63-.45,17.7-1.64,24.06-3.54,7.79-2.33,12.53-5.65,14.09-9.84,1.57-4.23-.12-9.21-5.02-14.8ZM95.03,101.23c-.45.54-.9,1.09-1.33,1.65.17-.22.34-.43.52-.65.09-.1.17-.2.24-.31.19-.23.37-.46.57-.69l.61.03h0s-.63-.03-.63-.03ZM283.17,168.06c-4.92-5.61-12.78-11.55-23.38-17.64-3.16-1.81-6.43-3.57-9.75-5.25v1.13c3.15,1.6,6.25,3.27,9.24,4.99,10.51,6.03,18.28,11.89,23.13,17.43,4.64,5.3,6.28,9.94,4.84,13.79-1.44,3.88-5.96,6.98-13.44,9.22-6.27,1.88-14.24,3.06-23.77,3.5-2.31.1-4.73.17-7.22.19-.84.02-1.69.02-2.54.02h-.24c-3.77-.03-7.61-.12-11.43-.31-.93-.04-1.87-.1-2.81-.15-5.75-.34-11.66-.86-17.64-1.53-.11,0-.23-.03-.33-.03-9.33-1.06-18.95-2.51-28.76-4.34-4.15-.77-8.34-1.6-12.57-2.52-6.09-1.3-12.23-2.74-18.43-4.32-4.3-1.09-8.53-2.22-12.69-3.41-11.19-3.15-21.88-6.6-31.97-10.31-3.12-1.15-6.18-2.32-9.19-3.51-.03,0-.07-.03-.1-.04-2.06-.82-4.09-1.65-6.07-2.48-3.8-1.6-7.46-3.22-10.94-4.85-.87-.41-1.73-.83-2.59-1.24-.07-.03-.14-.07-.21-.1-.63-.3-1.24-.59-1.85-.91-4.18-2.06-8.13-4.16-11.76-6.25-10.5-6.03-18.27-11.89-23.12-17.43-4.63-5.29-6.26-9.93-4.83-13.78,1.43-3.89,5.95-6.99,13.44-9.23,7.76-2.33,18.19-3.57,30.99-3.69,2.86-.03,5.76,0,8.68.1.03-.17.05-.35.08-.51.03-.17.04-.32.07-.49-2.97-.09-5.93-.12-8.84-.1-12.89.1-23.42,1.36-31.26,3.72-7.8,2.35-12.55,5.66-14.1,9.85-1.57,4.22.12,9.2,5.03,14.8,4.91,5.62,12.78,11.55,23.37,17.65,3.65,2.08,7.62,4.21,11.82,6.28.68.34,1.37.67,2.06,1,.07.04.16.07.23.1.86.42,1.73.84,2.62,1.26,3.5,1.63,7.17,3.26,10.98,4.86,1.94.81,3.93,1.62,5.95,2.42.04,0,.07.03.11.03,3.15,1.25,6.36,2.48,9.64,3.67,10.09,3.7,20.78,7.13,31.95,10.27,4.02,1.14,8.11,2.24,12.26,3.3,6.29,1.6,12.52,3.05,18.69,4.37,4.22.91,8.41,1.74,12.56,2.51,9.65,1.8,19.1,3.23,28.29,4.27.11,0,.24.03.36.04,6.31.72,12.57,1.26,18.64,1.6.74.04,1.47.09,2.2.12,3.75.19,7.52.3,11.21.31h.26c.94,0,1.87,0,2.79,0,2.49-.02,4.9-.09,7.21-.19,9.63-.45,17.7-1.64,24.06-3.54,7.79-2.33,12.53-5.65,14.09-9.84,1.57-4.23-.12-9.21-5.02-14.8Z"/>
      <polyline class="cls-1" points="95.03 101.23 95.66 101.26 95.67 101.26"/>
      <path d="M95.65,101.27l-.23.28c-.82.98-1.64,2.01-2.45,3.07-.03.02-.03.04-.05.06-.11.15-.24.31-.36.46l-.16.22-.6-.03h-.03c-1.97-.1-3.95-.18-5.91-.23.03-.17.05-.35.08-.51.03-.17.04-.32.07-.49.13-.92.26-1.82.39-2.74.02-.17.04-.33.07-.5s.04-.33.07-.51l8.49.88c-.45.54-.9,1.09-1.33,1.65.17-.22.34-.43.52-.65.09-.1.17-.2.24-.31.19-.23.37-.46.57-.69l.61.03Z"/>
      <path d="M95.67,101.26l-2.69,3.36c.81-1.06,1.63-2.09,2.45-3.07l.23-.28h0s0,0,0,0Z"/>
      <path d="M248.61,145.57l-.61-.85c.17.09.36.17.53.25.03.2.06.4.08.6Z"/>
      <path d="M250.04,141.36v.56c-.06-.03-.12-.06-.19-.1l.19-.46Z"/>
      <path d="M250.04,141.36l-.19.46c.07.03.13.06.19.1v4.39c-.47-.25-.95-.49-1.43-.73-.02-.2-.04-.4-.08-.6-.17-.09-.36-.17-.53-.25,0,0,0,0-.02,0-.23-1.53-.49-3.01-.77-4.39l-.09-.38.44-.34,1.81.89c.22.1.44.22.65.32v.56Z"/>
      <path d="M247.98,144.71l-.85-4.78.09.38c.28,1.39.54,2.86.77,4.39Z"/>
    </g>
  </g>
</svg>