<svg xmlns="http://www.w3.org/2000/svg" width="86.985" height="32" viewBox="0 0 86.985 32">
  <defs>
    <style>
      .cls-1, .cls-6 {
        fill: none;
      }

      .cls-2 {
        fill: #001d42;
      }

      .cls-2, .cls-3, .cls-4, .cls-5, .cls-9 {
        fill-rule: evenodd;
      }

      .cls-3 {
        fill: #fff;
      }

      .cls-4 {
        fill: #fefefe;
      }

      .cls-5 {
        fill: #e1261c;
      }

      .cls-6 {
        stroke: #fff;
        stroke-miterlimit: 10;
      }

      .cls-7 {
        clip-path: url(#clip-path);
      }

      .cls-8 {
        fill: #74c9c6;
      }

      .cls-9 {
        fill: #ee1c25;
      }
    </style>
    <clipPath id="clip-path" transform="translate(0 0)">
      <path class="cls-1" d="M78.14,20.08a4.89,4.89,0,0,0,5-4,3.61,3.61,0,0,0-1.92-4,3.11,3.11,0,0,0,1.45-3.15C82.44,6.44,80.41,5.23,78,5.2a4.32,4.32,0,0,0-4.55,3.56A3.17,3.17,0,0,0,75,12a4.15,4.15,0,0,0-2,4A5,5,0,0,0,78.14,20.08Z"/>
    </clipPath>
  </defs>
  <path class="cls-1" d="M0,0H87V32H0Z" transform="translate(0 0)"/>
  <path class="cls-1" d="M.8.3H86.4V32H.8Z" transform="translate(0 0)"/>
  <path class="cls-2" d="M1,8H70.1V31H1Z" transform="translate(0 0)"/>
  <path class="cls-3" d="M5.4,12.6V26.5H8.8V17.9l5,8.6h3.3V12.6H13.7v8.1L8.9,12.6Z" transform="translate(0 0)"/>
  <path class="cls-4" d="M19,12.6V26.5H29.9V23.4H22.5V20.6H29v-3H22.5v-2h7.1V12.5Z" transform="translate(0 0)"/>
  <path class="cls-4" d="M30.5,12.6l4,13.9H38l1.8-9,1.9,9h3.1l4-13.9H45.2l-1.9,8.2-1.7-8.2H37.9l-1.6,7.8-1.8-7.8Z" transform="translate(0 0)"/>
  <path class="cls-3" d="M56.8,17.2s.5-1.7-2.3-2c-1.9-.2-2.3,1.1-2,1.6.6,1,4.9,1,7,2.7,1.8,1.5,1.3,4.9-.5,6.2-2.2,1.5-5.8,1.2-7.4.5A4.37,4.37,0,0,1,49,21.7h3.3s-.2,2.1,2.4,2.1,2.8-1.4,2.2-2-5.8-.9-7.2-3A4.22,4.22,0,0,1,51.1,13h0c2.5-1.5,6.3-.8,7.6.6a5,5,0,0,1,1.4,3.5Z" transform="translate(0 0)"/>
  <path class="cls-5" d="M63,.9H86v23H63Z" transform="translate(0 0)"/>
  <path class="cls-3" d="M71.5,19.7H68.2V8.8H65.9V5.5h5.6Z" transform="translate(0 0)"/>
  <g>
    <path class="cls-6" d="M86.7,24.4H62.1" transform="translate(0 0)"/>
    <path class="cls-6" d="M70.6,31.5H0" transform="translate(0 0)"/>
    <path class="cls-6" d="M62.5,7.9H0" transform="translate(0 0)"/>
    <path class="cls-6" d="M87,.5H62" transform="translate(0 0)"/>
    <path class="cls-6" d="M62.5,24.9V.7" transform="translate(0 0)"/>
    <path class="cls-6" d="M70.4,32V24.2" transform="translate(0 0)"/>
    <path class="cls-6" d="M.5,31.3V8" transform="translate(0 0)"/>
    <path class="cls-6" d="M86.5,24.9V.9" transform="translate(0 0)"/>
  </g>
  <g>
    <path class="cls-3" d="M78.14,20.08a4.89,4.89,0,0,0,5-4,3.61,3.61,0,0,0-1.92-4,3.11,3.11,0,0,0,1.45-3.15C82.44,6.44,80.41,5.23,78,5.2a4.32,4.32,0,0,0-4.55,3.56A3.17,3.17,0,0,0,75,12a4.15,4.15,0,0,0-2,4A5,5,0,0,0,78.14,20.08Z" transform="translate(0 0)"/>
    <g class="cls-7">
      <g>
        <path class="cls-8" d="M80.83,12a9.94,9.94,0,0,1-5.41.06,5.11,5.11,0,0,1,.07-2.77c.84.11,1.69-.46,2.54-.45s1.78.56,2.66.45A4.27,4.27,0,0,1,80.83,12Z" transform="translate(0 0)"/>
        <path class="cls-8" d="M75.46,9.77a5.43,5.43,0,0,1-1.19-.35,6.94,6.94,0,0,1-1-.56l.21-.41a7.34,7.34,0,0,0,1,.53,5.51,5.51,0,0,0,1.07.32Z" transform="translate(0 0)"/>
        <path class="cls-8" d="M75.5,12.07a4.5,4.5,0,0,1-1.19-.34,4.79,4.79,0,0,1-1-.53l.29-.38a4,4,0,0,0,.86.47,4.31,4.31,0,0,0,1.06.31Z" transform="translate(0 0)"/>
        <path class="cls-8" d="M80.71,9.76l-.07-.47A4.83,4.83,0,0,0,81.71,9a4.71,4.71,0,0,0,.93-.52l.29.39a6.61,6.61,0,0,1-1,.57A5.62,5.62,0,0,1,80.71,9.76Z" transform="translate(0 0)"/>
        <path class="cls-8" d="M80.64,12v-.47a2.86,2.86,0,0,0,1-.27,4.06,4.06,0,0,0,.87-.47l.29.38a4.55,4.55,0,0,1-1,.53A3.31,3.31,0,0,1,80.64,12Z" transform="translate(0 0)"/>
        <circle cx="79.29" cy="8.41" r="0.46"/>
        <circle cx="76.88" cy="8.41" r="0.46"/>
      </g>
    </g>
    <path class="cls-9" d="M79.77,15.11a1.62,1.62,0,0,1-1.55,1.69h0a1.66,1.66,0,0,1-1.66-1.66v0A1.57,1.57,0,0,1,78,13.46h.15a1.63,1.63,0,0,1,1.62,1.64Z" transform="translate(0 0)"/>
  </g>
</svg>
