<?xml version="1.0" encoding="UTF-8"?>
<svg id="Layer_1" data-name="Layer 1" xmlns="http://www.w3.org/2000/svg" xmlns:xlink="http://www.w3.org/1999/xlink" viewBox="0 0 320 320">
  <defs>
    <style>
      .cls-1 {
        fill: #0456fb;
      }

      .cls-2 {
        fill: #e67a7a;
      }

      .cls-3 {
        fill: #f9f5ec;
      }
    </style>
    <symbol id="Retro_Star" data-name="Retro Star" viewBox="0 0 49.95 49.85">
      <path class="cls-1" d="M30.96,3c.21-.48.38-1.02.64-1.5s.48-1.02.64-1.5v1.72c0,.59-.11,1.13-.21,1.61,0,.48-.21,1.02-.21,1.61s-.11,1.13-.21,1.61c-.21,1.02-.38,2.2-.59,3.22s-.38,2.09-.64,3.22c-.27,1.02-.48,2.09-.75,3.11s-.48,2.2-.75,3.22l-.27.86c0,.27-.11.59-.21.86.27-.21.48-.27.75-.38s.48-.27.75-.38c.97-.48,1.88-1.02,2.84-1.5s1.88-.97,2.95-1.34c.97-.48,1.88-.97,2.95-1.45s1.99-.86,2.95-1.34c.48-.21,1.02-.38,1.5-.59s1.02-.38,1.5-.64c.48-.21,1.02-.38,1.5-.59s1.02-.38,1.5-.48c-.38.38-.86.64-1.23,1.02s-.86.64-1.34,1.02c-.48.27-.86.59-1.34.97s-.86.64-1.34,1.02c-.86.59-1.72,1.23-2.63,1.88s-1.82,1.23-2.63,1.82-1.72,1.13-2.63,1.82c-.97.59-1.88,1.13-2.74,1.72-.27.21-.48.27-.75.38s-.48.27-.75.48l1.61.48c1.02.27,2.09.64,3.06,1.02,1.02.27,2.09.64,3.06,1.02,1.02.27,2.09.75,3.06,1.13,1.02.38,1.99.75,2.95,1.13s1.02.38,1.5.64c.48.21.97.48,1.45.64.59.21,1.02.38,1.61.64.48.21.97.48,1.45.64-.48,0-1.02-.11-1.5-.21-.59,0-1.13-.11-1.72-.21-.48,0-1.02,0-1.5-.21-.59,0-1.02-.21-1.61-.27-1.02-.21-2.09-.38-3.11-.59s-2.2-.38-3.22-.64c-1.02-.21-2.09-.38-3.11-.64s-2.09-.48-3.11-.75c-.27,0-.59,0-.86-.21l-.86-.21c.21.27.27.48.38.75s.27.48.38.75c.48.97,1.02,1.88,1.5,2.84s.97,1.88,1.34,2.84c.48,1.02.86,1.99,1.34,2.95s.86,1.99,1.23,3.06c.21.48.48.97.64,1.5s.38,1.02.59,1.61c.21.48.38.97.59,1.45s.27,1.02.48,1.61c-.38-.38-.64-.86-1.02-1.23s-.64-.86-1.02-1.34c-.27-.38-.59-.86-.97-1.23-.27-.38-.64-.86-1.02-1.34-.59-.86-1.13-1.72-1.82-2.63-.64-.97-1.23-1.82-1.82-2.63-.59-.97-1.13-1.88-1.82-2.74-.59-.86-1.13-1.82-1.72-2.63-.11-.27-.27-.59-.38-.75-.21-.27-.27-.48-.48-.75-.11.27-.21.59-.27.86l-.27.86c-.38,1.02-.64,2.09-1.02,3.11-.27,1.02-.64,2.09-1.02,3.11s-.75,2.09-1.13,3.06c-.38.97-.75,1.99-1.23,2.95-.21.48-.38,1.02-.64,1.5-.27.59-.48,1.02-.64,1.5s-.38.97-.64,1.5c-.27.59-.48.97-.75,1.45,0-.48.21-1.02.21-1.61s.11-1.13.21-1.61.21-1.02.27-1.61c0-.59.21-1.13.27-1.61.21-1.13.27-2.2.48-3.11.21-1.02.38-2.09.64-3.11s.48-2.09.64-3.11c.21-1.02.48-2.09.64-3.11,0-.27.21-.59.21-.86s.11-.59.21-.86c-.27.21-.48.27-.75.38s-.48.27-.75.38c-.97.48-1.88,1.02-2.84,1.5s-1.88.97-2.84,1.5c-.97.48-1.88.97-2.95,1.45s-1.99.86-3.06,1.34c-.48.21-.97.48-1.45.64s-1.02.38-1.61.59c-.48.21-.97.48-1.5.64-.48.21-1.02.38-1.61.59.38-.38.86-.75,1.23-1.13s.86-.64,1.34-.97c.38-.38.86-.64,1.23-1.02.48-.38.86-.64,1.34-.97.86-.64,1.82-1.23,2.63-1.88s1.82-1.23,2.74-1.88c.86-.59,1.82-1.13,2.63-1.72.97-.59,1.82-1.13,2.63-1.72.27-.21.48-.27.75-.48s.48-.27.75-.48l-.86-.27c-.27,0-.59-.21-.86-.27-1.02-.27-2.09-.64-3.06-1.02-.97-.27-1.99-.64-3.06-1.02-1.02-.27-1.99-.64-3.06-1.02-.97-.38-1.99-.75-3.06-1.13-.48-.21-.97-.38-1.5-.59s-1.02-.48-1.5-.64-.97-.38-1.45-.64c-.48-.27-1.02-.48-1.45-.64.48,0,1.02,0,1.61.11.59,0,1.13.11,1.61.21.48,0,1.02,0,1.61.21s1.13.11,1.61.21c1.02.21,2.09.38,3.11.59s2.09.38,3.11.59c1.02.27,2.09.48,3.11.64,1.02.21,1.99.48,3.11.64l1.72.48c-.11-.27-.27-.59-.38-.86s-.27-.48-.38-.75c-.48-.97-.97-1.88-1.45-2.84l-1.45-2.84c-.48-.97-.97-1.99-1.45-2.95-.48-1.02-.86-1.99-1.34-2.95-.21-.59-.38-1.02-.59-1.61s-.38-1.02-.59-1.45c-.21-.59-.38-1.02-.59-1.61s-.38-1.02-.48-1.5c.38.38.75.86,1.13,1.23.38.38.64.86.97,1.23.38.48.75.97,1.02,1.34s.59.86.86,1.34c.64.86,1.34,1.72,1.88,2.63s1.23,1.82,1.82,2.63,1.13,1.72,1.72,2.63,1.13,1.88,1.72,2.74c.21.27.27.48.48.75s.27.48.48.75c0-.27.11-.48.27-.75s.21-.59.27-.86c.38-1.02.64-2.09,1.02-3.11.38-1.02.64-2.09,1.02-3.06.38-1.02.64-2.09,1.02-3.06.38-1.02.75-1.99,1.23-3.06.21-.48.38-1.02.59-1.5s.38-1.02.59-1.45h0l.75-.59.21.05Z"/>
    </symbol>
  </defs>
  <rect class="cls-3" x="0" width="320" height="318.41"/>
  <polygon points="74.95 47.5 75.2 47.26 74.97 47.5 74.95 47.5"/>
  <path d="M79.53,42.99l-2.97,2.9h-.01c-.14.14-.28.28-.42.42-.14.14-.28.28-.42.42l-.45.45c1.03-1.35,2.08-2.65,3.11-3.89l.29-.36.84.05h.03Z"/>
  <g>
    <path d="M184.13,115.19v.07c-2.34-5.8-8.25-13.14-14.8-14.01-5.52-.75-12.63.55-18.32,0l3.9,3.28.24,63.65c-.28,1.97-2.8,3-3.72,4.69h18.96c.24-1.18-3.72-3.17-3.72-3.9v-10.11c.99-.2.66.11.9.55,4.34,6.79,9.17,14.41,18.44,13.9v-16.9c-1.82.55-3.39,1.58-5.34,1.86-3.94.59-8.8-1.27-11.56-4.14,16.07-4.27,20.62-24.96,15-38.93v-.02ZM171.78,145.36v-.04c-.87,2.14-2.56,5.45-5.14,5.38v-45.52l.83-.44c1.45.31,2.93,2.56,3.55,3.87,4.55,9.04,4.51,27.41.75,36.76h0Z"/>
    <path d="M82.59,116.02l-.07-.04c-2.21-6.2,2.37-11.69,8.89-10.93,7.18.79,13.11,13.46,15.9,19.31.17.11.79-.48.83-.63v-22.24l-.83-.44-3.83,2.21c-25.86-10.35-40.74,16.27-20.45,34.9,4.97,4.55,18.44,12,19.35,18.55,1.27,9.04-5.52,14.17-13.66,9.55-2.37-1.34-5.52-4.62-7.27-6.72-3.07-3.76-5.06-8.21-7.86-12.11v25.94l4.38-3.63c17.21,9.28,36.01.07,32.65-20.8-2.89-17.93-24-21.59-28.03-32.93h0Z"/>
    <path d="M66.64,168.53h0l-10.38-67.24h-11.52c.55,2.49.59,3.83.35,6.31-2.17,20.45-7.11,41.45-9.79,61.87l-3.76,3.48h12.76l-3.76-3.9,1.9-11.34,10.69.39,1.73,10.9-4.42,3.94h20.62c-.9-1.55-4.07-2.76-4.42-4.42v.02ZM43.7,152.74l-.55-.94,4.03-29.14,4.93,30.08h-8.41,0Z"/>
    <path d="M112.27,116.09h0c1.18.24.66-.35.94-.9,1.45-2.96,2.61-6.07,4.23-9h5.96v63.45c0,.07-.75.11-1.27.59-.87.83-1.79,1.69-2.45,2.69h19.35c-.66-.99-1.62-1.86-2.45-2.69-.48-.48-1.27-.52-1.27-.59v-63.45h5.96c1.73,2.8,2.76,6.04,4.23,8.96.28.55-.28,1.14.94.9v-14.8h-34.18v14.84h0Z"/>
    <path d="M126.28,181.63l-.07.04c-.28.99.24.72.52.94,1.73,1.55,3.48,3.07,5.25,4.62v31.11l-20.38-36.69h-8.8l.53,11.14.24,54.14.09,6.39h10.64l-5.76-5.56v-46.76l28.42,52.7v-66.52l5.76-5.56h-16.46l.02.02Z"/>
    <path d="M173.67,248.12h0l-10-65.38-.59-1.07h-11.34l.79,4.27-10,64-3.59,3.44h12.35c-.11-1.42-3.35-2.72-3.59-3.94l1.55-11.28h11.1s1.69,11.65,1.69,11.65l-4.14,3.59h20.17c-1.1-2.14-4.1-2.69-4.42-5.25v-.04ZM158.92,233.16h-8.45l4.34-30.48,4.69,29.1c.2.44-.28,1.38-.59,1.38Z"/>
    <path d="M174.37,182.33v13.58c0,.07.66.75.83.63l4.1-9.87h6.59v62.81c0,.63-3.87,2.89-3.72,3.9h18.96c.17-1.03-3.72-3.28-3.72-3.9v-62.81h5.96l5.14,9.87v-14.84h-33.52l-.63.63h0Z"/>
    <path d="M268.69,130.69c-.13-.05-.25-.13-.39-.19l-.29-.15-.04-.33c-.03-.14-.04-.28-.06-.42l-.17-.08-.03-.34c-.01-.13-.03-.24-.05-.37l-.14-1.2-.18-.88.7.34c-3.85-17.24-19.55-31.45-40.46-29.66v.06c-10.27.89-19.06,5.76-25.22,12.82l.79.04-.84.98c-.42.5-.83,1.02-1.22,1.54l-.2.28-.52-.04c-.08,0-.15-.01-.23-.01-4.46,6.13-7.1,13.57-7.3,21.31-.01.23-.03.47-.03.7,0,.24,0,.47.01.71-.01.15-.01.31,0,.46,0,.24.01.47.03.71s.03.47.05.71c.23,3.99,1.13,8.01,2.75,11.95,10.71,26,45.87,31.49,64.15,10.01,1.47-1.71,2.74-3.48,3.82-5.3.13-.2.25-.42.38-.64.13-.2.24-.42.36-.64.06-.11.13-.23.19-.34.11-.22.23-.42.34-.64.11-.22.22-.42.32-.64,3.3-6.73,4.33-13.91,3.48-20.78ZM203.12,152.96c-1.68-3.77-2.28-7.75-2-11.73.01-.22.03-.45.05-.66.03-.22.04-.45.06-.66.03-.14.04-.28.06-.41.03-.22.05-.43.09-.65.04-.22.06-.42.11-.64,3.58-20.45,28.82-39.87,47.75-30.75,17.44,8.42,12.54,30.66,2.1,43.17-.17.2-.33.39-.5.59-.17.2-.34.39-.51.59-.1.11-.2.22-.31.32-.18.2-.36.39-.55.59-.11.11-.24.24-.36.37h-.06c-.06.06-.14.13-.2.19-12.1,11.87-37.2,18.92-45.75-.31Z"/>
    <g>
      <path class="cls-2" d="M287.5,146.8c-.83,2.23-3.16,3.95-6.93,5.13-3.63,1.13-8.48,1.73-14.46,1.78-.28,0-.57.01-.85.01-.42,0-.84-.01-1.26-.01-1.45-.01-2.96-.06-4.48-.14-3.21-.17-6.56-.46-10.03-.88-7.99-.97-16.55-2.59-25.24-4.8-8.28-2.1-16.09-4.59-23.08-7.34-2.93-1.15-5.72-2.34-8.33-3.58-.59-.27-1.15-.54-1.71-.82-1.95-.96-3.78-1.92-5.48-2.9-4.9-2.82-8.52-5.57-10.75-8.19-2.32-2.73-3.08-5.24-2.25-7.47.82-2.22,3.15-3.95,6.93-5.13,3.62-1.12,8.48-1.73,14.45-1.78,2.15-.01,4.43.04,6.78.17l1.02.05c-.43.51-.85,1.03-1.25,1.57h-.17c-2.19-.13-4.33-.17-6.36-.15-5.59.05-10.15.6-13.54,1.62-3.32.99-5.34,2.39-5.99,4.14-.65,1.76.06,3.85,2.14,6.22,2.11,2.43,5.53,4.99,10.11,7.63,1.59.92,3.31,1.83,5.13,2.73.29.15.59.29.89.45,2.68,1.29,5.55,2.54,8.59,3.75,7.06,2.82,15.01,5.36,23.44,7.5,9.01,2.28,17.85,3.94,26.03,4.87,3.12.36,6.15.61,9.06.75,1.71.09,3.38.13,4.98.14.41,0,.8,0,1.21-.01,5.58-.05,10.14-.59,13.54-1.61,3.32-1.01,5.34-2.39,5.99-4.15.65-1.76-.08-3.85-2.14-6.22-2.13-2.42-5.53-4.99-10.11-7.63-1.49-.85-3.11-1.71-4.79-2.56-.1-.69-.23-1.38-.37-2.06l.64.31c2.01.98,3.9,1.99,5.64,2.98,2.45,1.4,4.57,2.8,6.37,4.17,1.8,1.38,3.26,2.71,4.37,4.03,2.33,2.74,3.1,5.25,2.27,7.47Z"/>
      <path class="cls-2" d="M285.72,138.93c-1.12-1.34-2.59-2.68-4.47-4.13-1.86-1.41-4.03-2.83-6.43-4.2-1.89-1.07-3.8-2.09-5.68-3.01l-1.1-.52c.06.25.13.52.18.79.14.69.27,1.38.37,2.06.04.25.08.51.1.76,1.69.87,3.13,1.63,4.37,2.34,4.51,2.6,7.86,5.12,9.95,7.5,1.91,2.18,2.59,4.06,2.03,5.58-.57,1.54-2.45,2.82-5.57,3.76-3.32.99-7.82,1.53-13.38,1.58-.29.01-.59.01-.88.01h-.32c-1.8-.01-3.41-.06-4.96-.14-2.7-.14-5.59-.36-8.59-.7-.14-.01-.28-.04-.42-.05-8.17-.93-16.9-2.56-25.95-4.85-8.41-2.13-16.27-4.65-23.35-7.47-.04-.01-.09-.04-.13-.05-3.06-1.24-5.9-2.46-8.42-3.68l-.25-.13-.05-.03c-.19-.09-.38-.19-.59-.29-1.76-.87-3.48-1.77-5.1-2.7-4.56-2.62-7.91-5.15-9.95-7.5-1.91-2.18-2.59-4.05-2.03-5.58.57-1.53,2.5-2.83,5.57-3.75,3.35-1.01,7.85-1.54,13.36-1.59,2.1-.01,4.14.04,6.08.13.14-.2.29-.41.45-.61.39-.54.82-1.06,1.25-1.57.18-.2.34-.41.54-.61l-1.52-.08c-2.28-.13-4.57-.18-6.82-.17-6,.05-10.92.66-14.64,1.81-3.97,1.25-6.45,3.11-7.34,5.53-.9,2.45-.11,5.17,2.37,8.09,2.27,2.68,5.94,5.48,10.92,8.33,1.66.96,3.52,1.95,5.52,2.93.56.28,1.13.55,1.72.82.1.05.2.1.32.14,2.51,1.2,5.21,2.36,8.05,3.46.06.03.11.05.18.06,6.99,2.74,14.73,5.2,22.98,7.29,8.47,2.17,16.79,3.76,24.76,4.75.18.03.37.05.55.08,3.45.42,6.84.71,10.06.88,1.52.06,2.87.11,4.14.14h1.64s.85,0,.85,0c6.04-.05,10.97-.66,14.65-1.81,1.99-.62,3.59-1.4,4.82-2.32,1.22-.93,2.06-2,2.52-3.21.92-2.45.11-5.17-2.38-8.09ZM286.9,146.59c-.75,2.03-2.94,3.62-6.52,4.74-3.57,1.12-8.37,1.71-14.27,1.76h-.85s-.9,0-.9,0h-.36c-1.35-.01-2.82-.06-4.45-.14-3.04-.15-6.25-.43-9.52-.83-.15-.01-.32-.03-.47-.05-8.09-.98-16.55-2.59-25.16-4.78-8.25-2.1-16-4.56-23.01-7.32-.05-.03-.11-.04-.17-.06-2.87-1.13-5.61-2.31-8.13-3.49-.1-.05-.2-.09-.29-.14-.48-.22-.94-.45-1.4-.68-1.97-.97-3.81-1.94-5.44-2.88-4.85-2.79-8.41-5.5-10.59-8.05-2.17-2.55-2.88-4.84-2.14-6.84.74-2.03,2.94-3.62,6.52-4.74,3.59-1.12,8.4-1.71,14.26-1.76h.66c1.92,0,3.89.05,5.85.15-.09.11-.18.23-.27.33-1.99-.1-4.08-.14-6.22-.13-5.66.05-10.27.6-13.72,1.64-3.53,1.06-5.68,2.57-6.41,4.54-.74,1.99.03,4.31,2.25,6.85,2.14,2.46,5.61,5.07,10.28,7.76,1.64.96,3.39,1.87,5.16,2.74.19.1.39.2.6.31l.31.15c.1.05.19.09.29.14,2.52,1.2,5.32,2.42,8.33,3.62.05.03.1.04.15.06,7.11,2.83,14.97,5.34,23.38,7.47,8.94,2.27,17.58,3.89,25.67,4.84.15.01.29.04.43.05,3.18.36,6.24.61,9.1.75,1.45.08,2.98.11,4.68.14h.34c.41,0,.82,0,1.21-.01,5.67-.05,10.28-.6,13.73-1.63,3.52-1.07,5.67-2.6,6.39-4.55.74-1.99-.03-4.29-2.25-6.85-2.19-2.48-5.66-5.1-10.28-7.76-1.29-.74-2.76-1.53-4.54-2.43-.03-.17-.05-.34-.08-.52,1.69.84,3.41,1.76,5.1,2.71,2.37,1.36,4.48,2.74,6.31,4.13,1.78,1.36,3.22,2.69,4.27,3.92,1.62,1.91,2.43,3.68,2.43,5.27,0,.55-.09,1.07-.28,1.57Z"/>
      <path d="M268.69,130.69c-.13-.05-.25-.13-.39-.19l-.29-.15-.04-.33c-.03-.14-.04-.28-.06-.42l-.17-.08-.03-.34c-.01-.13-.03-.24-.05-.37l-.14-1.2-.18-.88.7.34c.06.25.13.52.18.79.14.69.27,1.38.37,2.06.04.25.08.51.1.76Z"/>
      <path d="M203.14,110.33l-.84.98c-.42.5-.83,1.02-1.22,1.54l-.2.28-.52-.04c-.08,0-.15-.01-.23-.01.14-.2.29-.41.45-.61.39-.54.82-1.06,1.25-1.57.18-.2.34-.41.54-.61l.79.04Z"/>
    </g>
    <use width="49.95" height="49.85" transform="translate(241.17 82.18) rotate(-158.25) scale(.28)" xlink:href="#Retro_Star"/>
    <use width="49.95" height="49.85" transform="translate(268.22 100.61) rotate(-159.96) scale(.48)" xlink:href="#Retro_Star"/>
    <use width="49.95" height="49.85" transform="translate(52.82 213.56) rotate(-133.45) scale(.39)" xlink:href="#Retro_Star"/>
    <use width="49.95" height="49.85" transform="translate(72.15 252.18) rotate(-135.16) scale(.66)" xlink:href="#Retro_Star"/>
    <use width="49.95" height="49.85" transform="translate(221.15 260.99) rotate(-135.16) scale(.66)" xlink:href="#Retro_Star"/>
  </g>
</svg>