<?xml version="1.0" encoding="UTF-8"?>
<svg id="Layer_1" data-name="Layer 1" xmlns="http://www.w3.org/2000/svg" xmlns:xlink="http://www.w3.org/1999/xlink" viewBox="0 0 215.52 164.09">
  <defs>
    <style>
      .cls-1 {
        fill: #0456fb;
      }

      .cls-2 {
        fill: #0456fb;
      }

      .cls-3 {
        fill: #e67a7a;
      }
    </style>
    <symbol id="Retro_Star" data-name="Retro Star" viewBox="0 0 49.95 49.85">
      <path class="cls-2" d="M30.96,3c.21-.48.38-1.02.64-1.5s.48-1.02.64-1.5v1.72c0,.59-.11,1.13-.21,1.61,0,.48-.21,1.02-.21,1.61s-.11,1.13-.21,1.61c-.21,1.02-.38,2.2-.59,3.22s-.38,2.09-.64,3.22c-.27,1.02-.48,2.09-.75,3.11s-.48,2.2-.75,3.22l-.27.86c0,.27-.11.59-.21.86.27-.21.48-.27.75-.38s.48-.27.75-.38c.97-.48,1.88-1.02,2.84-1.5s1.88-.97,2.95-1.34c.97-.48,1.88-.97,2.95-1.45s1.99-.86,2.95-1.34c.48-.21,1.02-.38,1.5-.59s1.02-.38,1.5-.64c.48-.21,1.02-.38,1.5-.59s1.02-.38,1.5-.48c-.38.38-.86.64-1.23,1.02s-.86.64-1.34,1.02c-.48.27-.86.59-1.34.97s-.86.64-1.34,1.02c-.86.59-1.72,1.23-2.63,1.88s-1.82,1.23-2.63,1.82-1.72,1.13-2.63,1.82c-.97.59-1.88,1.13-2.74,1.72-.27.21-.48.27-.75.38s-.48.27-.75.48l1.61.48c1.02.27,2.09.64,3.06,1.02,1.02.27,2.09.64,3.06,1.02,1.02.27,2.09.75,3.06,1.13,1.02.38,1.99.75,2.95,1.13s1.02.38,1.5.64c.48.21.97.48,1.45.64.59.21,1.02.38,1.61.64.48.21.97.48,1.45.64-.48,0-1.02-.11-1.5-.21-.59,0-1.13-.11-1.72-.21-.48,0-1.02,0-1.5-.21-.59,0-1.02-.21-1.61-.27-1.02-.21-2.09-.38-3.11-.59s-2.2-.38-3.22-.64c-1.02-.21-2.09-.38-3.11-.64s-2.09-.48-3.11-.75c-.27,0-.59,0-.86-.21l-.86-.21c.21.27.27.48.38.75s.27.48.38.75c.48.97,1.02,1.88,1.5,2.84s.97,1.88,1.34,2.84c.48,1.02.86,1.99,1.34,2.95s.86,1.99,1.23,3.06c.21.48.48.97.64,1.5s.38,1.02.59,1.61c.21.48.38.97.59,1.45s.27,1.02.48,1.61c-.38-.38-.64-.86-1.02-1.23s-.64-.86-1.02-1.34c-.27-.38-.59-.86-.97-1.23-.27-.38-.64-.86-1.02-1.34-.59-.86-1.13-1.72-1.82-2.63-.64-.97-1.23-1.82-1.82-2.63-.59-.97-1.13-1.88-1.82-2.74-.59-.86-1.13-1.82-1.72-2.63-.11-.27-.27-.59-.38-.75-.21-.27-.27-.48-.48-.75-.11.27-.21.59-.27.86l-.27.86c-.38,1.02-.64,2.09-1.02,3.11-.27,1.02-.64,2.09-1.02,3.11s-.75,2.09-1.13,3.06c-.38.97-.75,1.99-1.23,2.95-.21.48-.38,1.02-.64,1.5-.27.59-.48,1.02-.64,1.5s-.38.97-.64,1.5c-.27.59-.48.97-.75,1.45,0-.48.21-1.02.21-1.61s.11-1.13.21-1.61.21-1.02.27-1.61c0-.59.21-1.13.27-1.61.21-1.13.27-2.2.48-3.11.21-1.02.38-2.09.64-3.11s.48-2.09.64-3.11c.21-1.02.48-2.09.64-3.11,0-.27.21-.59.21-.86s.11-.59.21-.86c-.27.21-.48.27-.75.38s-.48.27-.75.38c-.97.48-1.88,1.02-2.84,1.5s-1.88.97-2.84,1.5c-.97.48-1.88.97-2.95,1.45s-1.99.86-3.06,1.34c-.48.21-.97.48-1.45.64s-1.02.38-1.61.59c-.48.21-.97.48-1.5.64-.48.21-1.02.38-1.61.59.38-.38.86-.75,1.23-1.13s.86-.64,1.34-.97c.38-.38.86-.64,1.23-1.02.48-.38.86-.64,1.34-.97.86-.64,1.82-1.23,2.63-1.88s1.82-1.23,2.74-1.88c.86-.59,1.82-1.13,2.63-1.72.97-.59,1.82-1.13,2.63-1.72.27-.21.48-.27.75-.48s.48-.27.75-.48l-.86-.27c-.27,0-.59-.21-.86-.27-1.02-.27-2.09-.64-3.06-1.02-.97-.27-1.99-.64-3.06-1.02-1.02-.27-1.99-.64-3.06-1.02-.97-.38-1.99-.75-3.06-1.13-.48-.21-.97-.38-1.5-.59s-1.02-.48-1.5-.64-.97-.38-1.45-.64c-.48-.27-1.02-.48-1.45-.64.48,0,1.02,0,1.61.11.59,0,1.13.11,1.61.21.48,0,1.02,0,1.61.21s1.13.11,1.61.21c1.02.21,2.09.38,3.11.59s2.09.38,3.11.59c1.02.27,2.09.48,3.11.64,1.02.21,1.99.48,3.11.64l1.72.48c-.11-.27-.27-.59-.38-.86s-.27-.48-.38-.75c-.48-.97-.97-1.88-1.45-2.84l-1.45-2.84c-.48-.97-.97-1.99-1.45-2.95-.48-1.02-.86-1.99-1.34-2.95-.21-.59-.38-1.02-.59-1.61s-.38-1.02-.59-1.45c-.21-.59-.38-1.02-.59-1.61s-.38-1.02-.48-1.5c.38.38.75.86,1.13,1.23.38.38.64.86.97,1.23.38.48.75.97,1.02,1.34s.59.86.86,1.34c.64.86,1.34,1.72,1.88,2.63s1.23,1.82,1.82,2.63,1.13,1.72,1.72,2.63,1.13,1.88,1.72,2.74c.21.27.27.48.48.75s.27.48.48.75c0-.27.11-.48.27-.75s.21-.59.27-.86c.38-1.02.64-2.09,1.02-3.11.38-1.02.64-2.09,1.02-3.06.38-1.02.64-2.09,1.02-3.06.38-1.02.75-1.99,1.23-3.06.21-.48.38-1.02.59-1.5s.38-1.02.59-1.45h0l.75-.59.21.05Z"/>
    </symbol>
  </defs>
  <path class="cls-1" d="M135.65,97.81h0c-.1-.38-.64-.49-.85-.07l-.02.05c-.12.33-.08.66.27.73s.72-.32.61-.68h-.02s0-.03,0-.03Z"/>
  <path d="M125.36,46.39v.06c-1.84-4.55-6.47-10.32-11.62-11-4.33-.59-9.91.43-14.38,0l3.06,2.57.19,49.97c-.22,1.55-2.2,2.36-2.92,3.68h14.88c.19-.92-2.92-2.49-2.92-3.06v-7.93c.78-.16.52.09.71.43,3.41,5.33,7.2,11.31,14.48,10.91v-13.26c-1.43.43-2.66,1.24-4.19,1.46-3.09.46-6.91-1-9.07-3.25,12.61-3.35,16.18-19.59,11.78-30.56h0ZM115.66,70.07v-.03c-.68,1.68-2.01,4.28-4.03,4.22v-35.73l.65-.35c1.14.25,2.3,2.01,2.79,3.03,3.57,7.09,3.54,21.52.59,28.86h0Z"/>
  <path d="M45.65,47.04l-.06-.03c-1.73-4.87,1.86-9.18,6.98-8.58,5.64.62,10.29,10.56,12.48,15.16.13.09.62-.38.65-.49v-17.46l-.65-.35-3.01,1.73c-20.3-8.12-31.98,12.77-16.05,27.4,3.9,3.57,14.48,9.42,15.19,14.57,1,7.09-4.33,11.13-10.72,7.5-1.86-1.05-4.33-3.63-5.71-5.27-2.41-2.95-3.97-6.44-6.17-9.51v20.36l3.44-2.85c13.51,7.28,28.26.06,25.63-16.33-2.27-14.07-18.84-16.95-22.01-25.85h0Z"/>
  <path d="M33.13,88.26h0l-8.15-52.78h-9.05c.43,1.95.46,3.01.27,4.96-1.71,16.05-5.58,32.54-7.69,48.57l-2.95,2.73h10.01l-2.95-3.06,1.49-8.9,8.4.3,1.36,8.55-3.47,3.09h16.18c-.71-1.21-3.19-2.17-3.47-3.47h0ZM15.12,75.86l-.43-.74,3.16-22.87,3.87,23.61h-6.6,0Z"/>
  <path d="M68.95,47.09h0c.92.19.52-.27.74-.71,1.14-2.33,2.05-4.77,3.32-7.07h4.68v49.81c0,.06-.59.09-1,.46-.68.65-1.4,1.33-1.92,2.11h15.19c-.52-.78-1.27-1.46-1.92-2.11-.38-.38-1-.4-1-.46v-49.81h4.68c1.36,2.2,2.17,4.74,3.32,7.04.22.43-.22.9.74.71v-11.62h-26.83v11.65h0Z"/>
  <path d="M79.95,98.54l-.06.03c-.22.78.19.56.4.74,1.36,1.21,2.73,2.41,4.12,3.63v24.42l-16-28.8h-6.91l.42,8.74.19,42.5.07,5.01h8.35l-4.52-4.36v-36.7l22.31,41.37v-52.22l4.52-4.36h-12.92.01Z"/>
  <path d="M117.14,150.74h0l-7.85-51.33-.46-.84h-8.9l.62,3.35-7.85,50.24-2.82,2.7h9.7c-.09-1.11-2.63-2.14-2.82-3.09l1.21-8.86h8.71s1.33,9.15,1.33,9.15l-3.25,2.82h15.84c-.87-1.68-3.22-2.11-3.47-4.12v-.03ZM105.57,138.99h-6.63l3.41-23.93,3.68,22.84c.16.35-.22,1.08-.46,1.08Z"/>
  <path d="M117.69,99.09v10.66c0,.06.52.59.65.49l3.22-7.75h5.17v49.3c0,.49-3.03,2.27-2.92,3.06h14.88c.13-.81-2.92-2.57-2.92-3.06v-49.3h4.68l4.03,7.75v-11.65h-26.31l-.49.49h0Z"/>
  <path d="M191.73,58.55c-.1-.04-.2-.1-.31-.15l-.23-.12-.03-.26c-.02-.11-.03-.22-.05-.33l-.13-.06-.02-.27c-.01-.1-.02-.19-.04-.29l-.11-.94-.14-.69.55.27c-3.02-13.53-15.35-24.69-31.76-23.28v.05c-8.06.7-14.96,4.52-19.8,10.06l.62.03-.66.77c-.33.39-.65.8-.96,1.21l-.16.22-.41-.03c-.06,0-.12-.01-.18-.01-3.5,4.81-5.57,10.65-5.73,16.73,0,.18-.02.37-.02.55,0,.19,0,.37.01.56-.01.12-.01.24,0,.36,0,.19,0,.37.02.56s.02.37.04.56c.18,3.13.89,6.29,2.16,9.38,8.41,20.41,36.01,24.72,50.36,7.86,1.15-1.34,2.15-2.73,3-4.16.1-.16.2-.33.3-.5.1-.16.19-.33.28-.5.05-.09.1-.18.15-.27.09-.17.18-.33.27-.5.09-.17.17-.33.25-.5,2.59-5.28,3.4-10.92,2.73-16.31ZM140.26,76.03c-1.32-2.96-1.79-6.08-1.57-9.21.01-.17.02-.35.04-.52.02-.17.03-.35.05-.52.02-.11.03-.22.05-.32.02-.17.04-.34.07-.51.03-.17.05-.33.09-.5,2.81-16.05,22.62-31.3,37.48-24.14,13.69,6.61,9.84,24.07,1.65,33.89-.13.16-.26.31-.39.46-.13.16-.27.31-.4.46-.08.09-.16.17-.24.25-.14.16-.28.31-.43.46-.09.09-.19.19-.28.29h-.05s-.11.1-.16.15c-9.5,9.32-29.2,14.85-35.91-.24Z"/>
  <path d="M191.65,57.95c-.13-.06-.26-.12-.39-.19l-.28-.13-.02-.27c-.01-.1-.02-.19-.04-.29l-.12-1.02.56.28c.11.54.21,1.08.29,1.62Z"/>
  <g>
    <path class="cls-3" d="M206.5,71.2c-.65,1.75-2.48,3.1-5.44,4.03-2.85.89-6.66,1.36-11.35,1.4-.22,0-.45,0-.67,0-.33,0-.66,0-.99,0-1.14-.01-2.32-.05-3.52-.11-2.52-.13-5.15-.36-7.87-.69-6.27-.76-12.99-2.03-19.81-3.77-6.5-1.65-12.63-3.6-18.12-5.76-2.3-.9-4.49-1.84-6.54-2.81-.46-.21-.9-.42-1.34-.64-1.53-.75-2.97-1.51-4.3-2.28-3.85-2.21-6.69-4.37-8.44-6.43-1.82-2.14-2.42-4.11-1.77-5.86.64-1.74,2.47-3.1,5.44-4.03,2.84-.88,6.66-1.36,11.34-1.4,1.69-.01,3.48.03,5.32.13l.8.04c-.34.4-.67.81-.98,1.23h-.13c-1.72-.1-3.4-.13-4.99-.12-4.39.04-7.97.47-10.63,1.27-2.61.78-4.19,1.88-4.7,3.25-.51,1.38.05,3.02,1.68,4.88,1.66,1.91,4.34,3.92,7.94,5.99,1.25.72,2.6,1.44,4.03,2.14.23.12.46.23.7.35,2.1,1.01,4.36,1.99,6.74,2.94,5.54,2.21,11.78,4.21,18.4,5.89,7.07,1.79,14.01,3.09,20.43,3.82,2.45.28,4.83.48,7.11.59,1.34.07,2.65.1,3.91.11.32,0,.63,0,.95-.01,4.38-.04,7.96-.46,10.63-1.26,2.61-.79,4.19-1.88,4.7-3.26.51-1.38-.06-3.02-1.68-4.88-1.67-1.9-4.34-3.92-7.94-5.99-1.17-.67-2.44-1.34-3.76-2.01-.08-.54-.18-1.08-.29-1.62l.5.24c1.58.77,3.06,1.56,4.43,2.34,1.92,1.1,3.59,2.2,5,3.27,1.41,1.08,2.56,2.13,3.43,3.16,1.83,2.15,2.43,4.12,1.78,5.86Z"/>
    <path class="cls-3" d="M205.1,65.02c-.88-1.05-2.03-2.1-3.51-3.24-1.46-1.11-3.16-2.22-5.05-3.3-1.48-.84-2.98-1.64-4.46-2.36l-.86-.41c.05.2.1.41.14.62.11.54.21,1.08.29,1.62.03.2.06.4.08.6,1.33.68,2.46,1.28,3.43,1.84,3.54,2.04,6.17,4.02,7.81,5.89,1.5,1.71,2.03,3.19,1.59,4.38-.45,1.21-1.92,2.21-4.37,2.95-2.61.78-6.14,1.2-10.5,1.24-.23.01-.46.01-.69.01h-.25c-1.41-.01-2.68-.05-3.89-.11-2.12-.11-4.39-.28-6.74-.55-.11-.01-.22-.03-.33-.04-6.41-.73-13.27-2.01-20.37-3.81-6.6-1.67-12.77-3.65-18.33-5.86-.03-.01-.07-.03-.1-.04-2.4-.97-4.63-1.93-6.61-2.89l-.2-.1-.04-.02c-.15-.07-.3-.15-.46-.23-1.38-.68-2.73-1.39-4-2.12-3.58-2.06-6.21-4.04-7.81-5.89-1.5-1.71-2.03-3.18-1.59-4.38.45-1.2,1.96-2.22,4.37-2.94,2.63-.79,6.16-1.21,10.49-1.25,1.65-.01,3.25.03,4.77.1.11-.16.23-.32.35-.48.31-.42.64-.83.98-1.23.14-.16.27-.32.42-.48l-1.19-.06c-1.79-.1-3.59-.14-5.35-.13-4.71.04-8.57.52-11.49,1.42-3.12.98-5.06,2.44-5.76,4.34-.71,1.92-.09,4.06,1.86,6.35,1.78,2.1,4.66,4.3,8.57,6.54,1.3.75,2.76,1.53,4.33,2.3.44.22.89.43,1.35.64.08.04.16.08.25.11,1.97.94,4.09,1.85,6.32,2.72.05.02.09.04.14.05,5.49,2.15,11.56,4.08,18.04,5.72,6.65,1.7,13.18,2.95,19.44,3.73.14.02.29.04.43.06,2.71.33,5.37.56,7.9.69,1.19.05,2.25.09,3.25.11h1.29s.67,0,.67,0c4.74-.04,8.61-.52,11.5-1.42,1.56-.49,2.82-1.1,3.78-1.82.96-.73,1.62-1.57,1.98-2.52.72-1.92.09-4.06-1.87-6.35ZM206.03,71.03c-.59,1.59-2.31,2.84-5.12,3.72-2.8.88-6.57,1.34-11.2,1.38h-.67s-.71,0-.71,0h-.28c-1.06-.01-2.21-.05-3.49-.11-2.39-.12-4.91-.34-7.47-.65-.12-.01-.25-.02-.37-.04-6.35-.77-12.99-2.03-19.75-3.75-6.48-1.65-12.56-3.58-18.06-5.75-.04-.02-.09-.03-.13-.05-2.25-.89-4.4-1.81-6.38-2.74-.08-.04-.16-.07-.23-.11-.38-.17-.74-.35-1.1-.53-1.55-.76-2.99-1.52-4.27-2.26-3.81-2.19-6.6-4.32-8.31-6.32-1.7-2-2.26-3.8-1.68-5.37.58-1.59,2.31-2.84,5.12-3.72,2.82-.88,6.59-1.34,11.19-1.38h.52c1.51,0,3.05.04,4.59.12-.07.09-.14.18-.21.26-1.56-.08-3.2-.11-4.88-.1-4.44.04-8.06.47-10.77,1.29-2.77.83-4.46,2.02-5.03,3.56-.58,1.56.02,3.38,1.77,5.38,1.68,1.93,4.4,3.98,8.07,6.09,1.29.75,2.66,1.47,4.05,2.15.15.08.31.16.47.24l.24.12c.08.04.15.07.23.11,1.98.94,4.18,1.9,6.54,2.84.04.02.08.03.12.05,5.58,2.22,11.75,4.19,18.35,5.86,7.02,1.78,13.8,3.05,20.15,3.8.12.01.23.03.34.04,2.5.28,4.9.48,7.14.59,1.14.06,2.34.09,3.67.11h.27c.32,0,.64,0,.95-.01,4.45-.04,8.07-.47,10.78-1.28,2.76-.84,4.45-2.04,5.02-3.57.58-1.56-.02-3.37-1.77-5.38-1.72-1.95-4.44-4-8.07-6.09-1.01-.58-2.17-1.2-3.56-1.91-.02-.13-.04-.27-.06-.41,1.33.66,2.68,1.38,4,2.13,1.86,1.07,3.52,2.15,4.95,3.24,1.4,1.07,2.53,2.11,3.35,3.08,1.27,1.5,1.91,2.89,1.91,4.14,0,.43-.07.84-.22,1.23Z"/>
    <path d="M191.73,58.55c-.1-.04-.2-.1-.31-.15l-.23-.12-.03-.26c-.02-.11-.03-.22-.05-.33l-.13-.06-.02-.27c-.01-.1-.02-.19-.04-.29l-.11-.94-.14-.69.55.27c.05.2.1.41.14.62.11.54.21,1.08.29,1.62.03.2.06.4.08.6Z"/>
    <path d="M140.28,42.57l-.66.77c-.33.39-.65.8-.96,1.21l-.16.22-.41-.03c-.06,0-.12-.01-.18-.01.11-.16.23-.32.35-.48.31-.42.64-.83.98-1.23.14-.16.27-.32.42-.48l.62.03Z"/>
  </g>
  <use width="49.95" height="49.85" transform="translate(170.13 20.47) rotate(-158.25) scale(.22)" xlink:href="#Retro_Star"/>
  <use width="49.95" height="49.85" transform="translate(191.37 34.94) rotate(-159.96) scale(.37)" xlink:href="#Retro_Star"/>
  <use width="49.95" height="49.85" transform="translate(22.28 123.6) rotate(-133.45) scale(.3)" xlink:href="#Retro_Star"/>
  <use width="49.95" height="49.85" transform="translate(37.46 153.92) rotate(-135.16) scale(.52)" xlink:href="#Retro_Star"/>
  <use width="49.95" height="49.85" transform="translate(154.42 160.84) rotate(-135.16) scale(.52)" xlink:href="#Retro_Star"/>
</svg>