<?xml version="1.0" encoding="UTF-8"?>
<svg id="Layer_1" data-name="Layer 1" xmlns="http://www.w3.org/2000/svg" xmlns:xlink="http://www.w3.org/1999/xlink" viewBox="0 0 320 320">
  <defs>
    <style>
      .cls-1 {
        fill: #0456fb;
      }

      .cls-2 {
        fill: #e67a7a;
      }

      .cls-3 {
        fill: #f9f5ec;
      }
    </style>
    <symbol id="Retro_Star" data-name="Retro Star" viewBox="0 0 49.95 49.85">
      <path class="cls-1" d="M30.96,3c.21-.48.38-1.02.64-1.5s.48-1.02.64-1.5v1.72c0,.59-.11,1.13-.21,1.61,0,.48-.21,1.02-.21,1.61s-.11,1.13-.21,1.61c-.21,1.02-.38,2.2-.59,3.22s-.38,2.09-.64,3.22c-.27,1.02-.48,2.09-.75,3.11s-.48,2.2-.75,3.22l-.27.86c0,.27-.11.59-.21.86.27-.21.48-.27.75-.38s.48-.27.75-.38c.97-.48,1.88-1.02,2.84-1.5s1.88-.97,2.95-1.34c.97-.48,1.88-.97,2.95-1.45s1.99-.86,2.95-1.34c.48-.21,1.02-.38,1.5-.59s1.02-.38,1.5-.64c.48-.21,1.02-.38,1.5-.59s1.02-.38,1.5-.48c-.38.38-.86.64-1.23,1.02s-.86.64-1.34,1.02c-.48.27-.86.59-1.34.97s-.86.64-1.34,1.02c-.86.59-1.72,1.23-2.63,1.88s-1.82,1.23-2.63,1.82-1.72,1.13-2.63,1.82c-.97.59-1.88,1.13-2.74,1.72-.27.21-.48.27-.75.38s-.48.27-.75.48l1.61.48c1.02.27,2.09.64,3.06,1.02,1.02.27,2.09.64,3.06,1.02,1.02.27,2.09.75,3.06,1.13,1.02.38,1.99.75,2.95,1.13s1.02.38,1.5.64c.48.21.97.48,1.45.64.59.21,1.02.38,1.61.64.48.21.97.48,1.45.64-.48,0-1.02-.11-1.5-.21-.59,0-1.13-.11-1.72-.21-.48,0-1.02,0-1.5-.21-.59,0-1.02-.21-1.61-.27-1.02-.21-2.09-.38-3.11-.59s-2.2-.38-3.22-.64c-1.02-.21-2.09-.38-3.11-.64s-2.09-.48-3.11-.75c-.27,0-.59,0-.86-.21l-.86-.21c.21.27.27.48.38.75s.27.48.38.75c.48.97,1.02,1.88,1.5,2.84s.97,1.88,1.34,2.84c.48,1.02.86,1.99,1.34,2.95s.86,1.99,1.23,3.06c.21.48.48.97.64,1.5s.38,1.02.59,1.61c.21.48.38.97.59,1.45s.27,1.02.48,1.61c-.38-.38-.64-.86-1.02-1.23s-.64-.86-1.02-1.34c-.27-.38-.59-.86-.97-1.23-.27-.38-.64-.86-1.02-1.34-.59-.86-1.13-1.72-1.82-2.63-.64-.97-1.23-1.82-1.82-2.63-.59-.97-1.13-1.88-1.82-2.74-.59-.86-1.13-1.82-1.72-2.63-.11-.27-.27-.59-.38-.75-.21-.27-.27-.48-.48-.75-.11.27-.21.59-.27.86l-.27.86c-.38,1.02-.64,2.09-1.02,3.11-.27,1.02-.64,2.09-1.02,3.11s-.75,2.09-1.13,3.06c-.38.97-.75,1.99-1.23,2.95-.21.48-.38,1.02-.64,1.5-.27.59-.48,1.02-.64,1.5s-.38.97-.64,1.5c-.27.59-.48.97-.75,1.45,0-.48.21-1.02.21-1.61s.11-1.13.21-1.61.21-1.02.27-1.61c0-.59.21-1.13.27-1.61.21-1.13.27-2.2.48-3.11.21-1.02.38-2.09.64-3.11s.48-2.09.64-3.11c.21-1.02.48-2.09.64-3.11,0-.27.21-.59.21-.86s.11-.59.21-.86c-.27.21-.48.27-.75.38s-.48.27-.75.38c-.97.48-1.88,1.02-2.84,1.5s-1.88.97-2.84,1.5c-.97.48-1.88.97-2.95,1.45s-1.99.86-3.06,1.34c-.48.21-.97.48-1.45.64s-1.02.38-1.61.59c-.48.21-.97.48-1.5.64-.48.21-1.02.38-1.61.59.38-.38.86-.75,1.23-1.13s.86-.64,1.34-.97c.38-.38.86-.64,1.23-1.02.48-.38.86-.64,1.34-.97.86-.64,1.82-1.23,2.63-1.88s1.82-1.23,2.74-1.88c.86-.59,1.82-1.13,2.63-1.72.97-.59,1.82-1.13,2.63-1.72.27-.21.48-.27.75-.48s.48-.27.75-.48l-.86-.27c-.27,0-.59-.21-.86-.27-1.02-.27-2.09-.64-3.06-1.02-.97-.27-1.99-.64-3.06-1.02-1.02-.27-1.99-.64-3.06-1.02-.97-.38-1.99-.75-3.06-1.13-.48-.21-.97-.38-1.5-.59s-1.02-.48-1.5-.64-.97-.38-1.45-.64c-.48-.27-1.02-.48-1.45-.64.48,0,1.02,0,1.61.11.59,0,1.13.11,1.61.21.48,0,1.02,0,1.61.21s1.13.11,1.61.21c1.02.21,2.09.38,3.11.59s2.09.38,3.11.59c1.02.27,2.09.48,3.11.64,1.02.21,1.99.48,3.11.64l1.72.48c-.11-.27-.27-.59-.38-.86s-.27-.48-.38-.75c-.48-.97-.97-1.88-1.45-2.84l-1.45-2.84c-.48-.97-.97-1.99-1.45-2.95-.48-1.02-.86-1.99-1.34-2.95-.21-.59-.38-1.02-.59-1.61s-.38-1.02-.59-1.45c-.21-.59-.38-1.02-.59-1.61s-.38-1.02-.48-1.5c.38.38.75.86,1.13,1.23.38.38.64.86.97,1.23.38.48.75.97,1.02,1.34s.59.86.86,1.34c.64.86,1.34,1.72,1.88,2.63s1.23,1.82,1.82,2.63,1.13,1.72,1.72,2.63,1.13,1.88,1.72,2.74c.21.27.27.48.48.75s.27.48.48.75c0-.27.11-.48.27-.75s.21-.59.27-.86c.38-1.02.64-2.09,1.02-3.11.38-1.02.64-2.09,1.02-3.06.38-1.02.64-2.09,1.02-3.06.38-1.02.75-1.99,1.23-3.06.21-.48.38-1.02.59-1.5s.38-1.02.59-1.45h0l.75-.59.21.05Z"/>
    </symbol>
  </defs>
  <rect class="cls-3" x="0" width="320" height="318.41"/>
  <use width="49.95" height="49.85" transform="translate(150.32 126.87) scale(1.13)" xlink:href="#Retro_Star"/>
  <use width="49.95" height="49.85" transform="translate(213.65 66.95) rotate(-158.25) scale(.46)" xlink:href="#Retro_Star"/>
  <use width="49.95" height="49.85" transform="translate(257.73 96.98) rotate(-159.96) scale(.78)" xlink:href="#Retro_Star"/>
  <path d="M256.19,157.34l-.62-.86c-.2-.1-.39-.2-.59-.29l-.81-.4-.08-.78c-.02-.28-.05-.56-.09-.84l-.37-2.97,1.09.53.44-.34c-8.37-39.93-44.55-73.16-92.85-69.01v.14c-23.92,2.07-44.34,13.6-58.5,30.23l.62.03-.4.47.66.04h-.01s-2.31,2.29-2.31,2.29h-.01l-.33.33c-.11.1-.22.21-.33.32h0s-.35.36-.35.36c-.02.02-.03.04-.05.06-.11.15-.23.3-.35.46l-.16.22-.6-.04c-10.8,14.5-17.12,32.23-17.4,50.71-.01.18-.01.37-.01.55v.55c0,1.08.01,2.15.06,3.23,0,.19.01.37.02.56l.03.57c.45,9.43,2.52,19.01,6.39,28.38,24.52,59.47,104.92,72.04,146.73,22.9,3.6-4.21,6.7-8.59,9.33-13.08.1-.17.19-.33.29-.5.1-.17.19-.33.28-.5.53-.9,1.02-1.8,1.49-2.71.09-.17.17-.33.26-.5.09-.17.17-.33.25-.5,8.12-16.03,10.54-33.24,8.28-49.61ZM211.62,209.66h-.13c-27.52,27.43-85.43,43.96-105.1-.26-3.98-8.91-5.3-18.35-4.5-27.81.01-.17.02-.35.04-.52s.03-.34.05-.51c.1-.97.21-1.94.36-2.92.02-.17.04-.34.07-.51.03-.17.05-.33.09-.5,7.59-47.11,65.8-92.3,109.39-71.3,40.31,19.44,28.41,71.21,4.07,99.64-.13.15-.26.3-.39.45-.13.15-.26.31-.41.46-.73.85-1.49,1.68-2.29,2.49-.13.15-.27.3-.42.45-.14.15-.29.3-.44.45l-.39.39Z"/>
  <g>
    <path class="cls-2" d="M299.38,195.35c-1.88,5.08-7.22,9.03-15.86,11.73-8.28,2.59-19.4,3.97-33.05,4.09-.65,0-1.31.01-1.96.01-.95,0-1.91-.01-2.88-.02-3.33-.04-6.77-.15-10.26-.33-7.34-.38-15-1.05-22.92-2.01-18.27-2.2-37.85-5.92-57.73-10.97-18.92-4.81-36.79-10.5-52.79-16.78-6.71-2.63-13.09-5.37-19.07-8.18-1.32-.63-2.62-1.25-3.9-1.88-4.44-2.18-8.65-4.41-12.52-6.63-11.21-6.44-19.48-12.74-24.59-18.74-5.32-6.25-7.06-12-5.17-17.08,1.88-5.08,7.22-9.03,15.86-11.73,8.29-2.59,19.41-3.97,33.05-4.09,4.91-.04,10.13.08,15.5.36l2.31.12c-.63.75-1.25,1.52-1.84,2.29-.34.43-.68.86-1.01,1.3l-.37-.02c-5.01-.26-9.91-.36-14.55-.32-12.78.11-23.2,1.35-30.97,3.69-7.6,2.28-12.21,5.48-13.69,9.49-1.49,4.01.16,8.8,4.9,14.22,4.85,5.54,12.63,11.41,23.13,17.44,3.63,2.09,7.58,4.19,11.73,6.24.68.34,1.36.67,2.05,1,6.13,2.96,12.69,5.82,19.63,8.58,16.16,6.43,34.33,12.25,53.63,17.16,20.58,5.23,40.81,9,59.53,11.13,7.14.82,14.06,1.39,20.7,1.72,3.91.19,7.73.29,11.39.31.93,0,1.86,0,2.77-.01,12.78-.11,23.2-1.36,30.97-3.69,7.6-2.28,12.21-5.48,13.7-9.49,1.49-4.02-.16-8.8-4.91-14.22-4.85-5.55-12.63-11.42-23.13-17.45-3.41-1.95-7.08-3.92-10.95-5.85-.23-1.58-.5-3.16-.82-4.73l1.45.71c4.58,2.24,8.92,4.53,12.88,6.81,5.61,3.22,10.48,6.4,14.59,9.54,4.11,3.13,7.45,6.2,10,9.2,5.32,6.25,7.06,11.99,5.17,17.08Z"/>
    <path class="cls-2" d="M294.59,177.95c-2.55-3.01-5.94-6.13-10.07-9.27-4.09-3.13-9.02-6.35-14.65-9.58-3.92-2.26-8.26-4.55-12.91-6.83l-1.8-.88c.05.2.09.41.13.62.32,1.57.59,3.15.82,4.73.03.2.06.4.08.6,3.62,1.82,7.19,3.72,10.62,5.69,10.45,6,18.19,11.83,23.01,17.34,4.61,5.27,6.24,9.89,4.81,13.72-1.43,3.86-5.93,6.95-13.37,9.18-7.76,2.33-18.13,3.56-30.83,3.67-.83.01-1.68.01-2.52.01h-.24c-3.74-.02-7.57-.12-11.37-.31-6.59-.32-13.42-.89-20.34-1.67-.11-.01-.22-.03-.33-.04-18.88-2.15-38.89-5.89-59.46-11.12-19.31-4.91-37.33-10.68-53.57-17.14-.03-.01-.07-.03-.1-.04-6.96-2.77-13.52-5.63-19.5-8.53-.07-.03-.14-.07-.21-.1-.62-.3-1.23-.59-1.84-.9-4.15-2.05-8.09-4.14-11.7-6.22-10.44-6-18.18-11.83-23-17.34-4.61-5.27-6.23-9.88-4.81-13.71,1.43-3.87,5.92-6.96,13.37-9.19,7.72-2.32,18.09-3.56,30.83-3.67,4.76-.04,9.64.07,14.52.32h.03c.12-.16.24-.32.36-.48.33-.44.67-.87,1.01-1.3.35-.43.69-.86,1.04-1.29.09-.1.17-.2.25-.3.19-.23.37-.46.56-.69l.61.03h.01s-.63-.04-.63-.04c.13-.16.27-.32.41-.47l-2.69-.15c-5.36-.28-10.59-.4-15.53-.36-13.68.12-24.85,1.51-33.2,4.12-8.79,2.75-14.24,6.79-16.18,12.03-1.95,5.26-.19,11.18,5.26,17.58,5.14,6.03,13.46,12.38,24.72,18.85,3.89,2.22,8.11,4.46,12.55,6.64,1.28.63,2.59,1.25,3.91,1.89.08.04.16.07.24.11,5.94,2.78,12.29,5.5,18.86,8.08.05.02.09.04.14.05,16.1,6.31,33.83,11.95,52.71,16.75,19.84,5.04,39.15,8.72,57.41,10.93.13.02.25.03.38.05,7.88.95,15.6,1.63,22.96,2.01,3.37.17,6.73.28,9.99.33h.45c.92.01,1.82.02,2.72.02h1.97c13.68-.13,24.85-1.51,33.19-4.12,4.4-1.37,7.96-3.07,10.66-5.09,2.7-2,4.55-4.32,5.52-6.94,1.96-5.27.19-11.18-5.26-17.58ZM100.31,116.3h-.1c-4.9-.26-9.8-.37-14.58-.33-12.83.11-23.3,1.36-31.11,3.71-7.76,2.33-12.48,5.63-14.02,9.8-1.56,4.2.12,9.15,5,14.72,4.89,5.59,12.72,11.49,23.25,17.55,3.63,2.08,7.58,4.19,11.76,6.25.68.34,1.36.67,2.05,1,.07.04.15.07.22.1,5.98,2.89,12.51,5.74,19.45,8.5.04.01.07.03.11.04,16.25,6.46,34.27,12.22,53.58,17.14,20.49,5.21,40.42,8.94,59.24,11.1.12.01.24.03.36.04,7.04.81,14.02,1.39,20.73,1.72,3.73.19,7.48.29,11.15.31h.26c.94,0,1.87,0,2.78-.01,12.79-.11,23.26-1.36,31.11-3.71,7.75-2.32,12.47-5.62,14.02-9.79,1.56-4.21-.12-9.16-5-14.73-4.89-5.59-12.71-11.49-23.26-17.55-3.47-1.99-7.08-3.92-10.74-5.75-.18-1.21-.38-2.38-.59-3.5l.54.26c4.63,2.26,8.95,4.55,12.85,6.8,5.6,3.21,10.49,6.4,14.54,9.5,4.07,3.1,7.41,6.17,9.92,9.13,3.85,4.52,5.78,8.76,5.78,12.65,0,1.35-.23,2.66-.7,3.93-1.82,4.93-7.05,8.77-15.54,11.43-8.24,2.58-19.31,3.94-32.9,4.06h-1.96c-.85,0-1.73,0-2.6-.01h-.27c-3.34-.04-6.79-.15-10.24-.33-7.22-.37-14.79-1.03-22.53-1.96-.12,0-.24-.03-.36-.04-18.33-2.21-37.73-5.9-57.66-10.96-18.89-4.8-36.63-10.44-52.73-16.76-.05-.02-.09-.04-.14-.05-6.6-2.6-12.95-5.32-18.9-8.12-.08-.04-.16-.08-.24-.11-1.24-.6-2.46-1.18-3.66-1.77-4.42-2.17-8.62-4.39-12.49-6.61-11.16-6.41-19.39-12.68-24.46-18.63-5.19-6.1-6.9-11.68-5.08-16.58,1.83-4.93,7.05-8.78,15.54-11.43,8.26-2.58,19.33-3.95,32.91-4.07h1.85c4.37,0,8.94.12,13.62.36l1.31.07c-.69.84-1.38,1.72-2.07,2.63Z"/>
    <path d="M104.43,112.78l-.4.47-.63-.03c.13-.16.27-.32.41-.47l.62.03Z"/>
    <path d="M104.69,113.29h-.01s-2.31,2.29-2.31,2.29h-.01l-.33.33c-.11.1-.22.21-.33.32h0s-.35.36-.35.36c.81-1.06,1.63-2.08,2.44-3.05l.23-.28h.01s.66.03.66.03Z"/>
    <path d="M104.02,113.26l-.23.28c-.81.97-1.63,1.99-2.44,3.05-.02.02-.03.04-.05.06-.11.15-.23.3-.35.46l-.16.22-.6-.04c.12-.16.24-.32.36-.48.33-.44.67-.87,1.01-1.3.35-.43.69-.86,1.04-1.29.09-.1.17-.2.25-.3.19-.23.37-.46.56-.69l.61.03Z"/>
    <path d="M256.19,157.34l-.62-.86c.18.09.36.17.54.26.03.2.06.4.08.6Z"/>
    <path d="M255.57,156.48c-.2-.1-.39-.2-.59-.29l-.81-.4-.08-.78c-.02-.28-.05-.56-.09-.84l-.37-2.97,1.09.53.08.38c.28,1.38.54,2.84.77,4.37Z"/>
    <path d="M256.11,156.74c-.18-.09-.36-.17-.54-.26-.23-1.53-.49-2.99-.77-4.37l-.08-.38.44-.34c.05.2.09.41.13.62.32,1.57.59,3.15.82,4.73Z"/>
  </g>
</svg>